<?xml version="1.0" encoding="UTF-8" standalone="no"?>
<svg width="341px" height="85px" viewBox="0 0 341 85" version="1.1" xmlns="http://www.w3.org/2000/svg" xmlns:xlink="http://www.w3.org/1999/xlink">
    <!-- Generator: Sketch 49.1 (51147) - http://www.bohemiancoding.com/sketch -->
    <title>division</title>
    <desc>Created with Sketch.</desc>
    <defs></defs>
    <g id="Page-1" stroke="none" stroke-width="1" fill="none" fill-rule="evenodd">
        <g id="Desktop-HD-Copy-2" transform="translate(-247.000000, -2991.000000)" stroke="#1ED28B">
            <g id="division" transform="translate(247.000000, 2992.000000)">
                <g id="Group-24">
                    <path d="M167,0 C210.308028,0 210.308028,28.2827935 253.616055,28.2827935 C296.924083,28.2827935 297.375976,0 340.23211,0" id="Path-2" transform="translate(253.616055, 14.141397) scale(1, -1) translate(-253.616055, -14.141397) "></path>
                    <path d="M0,0 C43.3080276,0 43.3080276,28.2827935 86.6160552,28.2827935 C129.924083,28.2827935 130.375976,0 173.23211,0" id="Path-2" transform="translate(86.616055, 14.141397) scale(1, -1) translate(-86.616055, -14.141397) "></path>
                </g>
                <g id="Group-19" transform="translate(0.000000, 28.000000)">
                    <path d="M167,0 C210.308028,0 210.308028,28.2827935 253.616055,28.2827935 C296.924083,28.2827935 297.375976,0 340.23211,0" id="Path-2-Copy" transform="translate(253.616055, 14.141397) scale(1, -1) translate(-253.616055, -14.141397) "></path>
                    <path d="M0,0 C43.3080276,0 43.3080276,28.2827935 86.6160552,28.2827935 C129.924083,28.2827935 130.375976,0 173.23211,0" id="Path-2-Copy-2" transform="translate(86.616055, 14.141397) scale(1, -1) translate(-86.616055, -14.141397) "></path>
                </g>
                <g id="Group-3" transform="translate(0.000000, 55.000000)">
                    <path d="M167,0 C210.308028,0 210.308028,28.2827935 253.616055,28.2827935 C296.924083,28.2827935 297.375976,0 340.23211,0" id="Path-2-Copy-4" transform="translate(253.616055, 14.141397) scale(1, -1) translate(-253.616055, -14.141397) "></path>
                    <path d="M0,0 C43.3080276,0 43.3080276,28.2827935 86.6160552,28.2827935 C129.924083,28.2827935 130.375976,0 173.23211,0" id="Path-2-Copy-3" transform="translate(86.616055, 14.141397) scale(1, -1) translate(-86.616055, -14.141397) "></path>
                </g>
            </g>
        </g>
    </g>
</svg>