<?xml version="1.0" encoding="UTF-8" standalone="no"?>
<svg width="24px" height="17px" viewBox="0 0 24 17" version="1.1" xmlns="http://www.w3.org/2000/svg" xmlns:xlink="http://www.w3.org/1999/xlink">
    <!-- Generator: Sketch 49.1 (51147) - http://www.bohemiancoding.com/sketch -->
    <title>icon-arrow-white</title>
    <desc>Created with Sketch.</desc>
    <defs>
        <path d="M0.00210615067,12.0654271 C0.000709262375,12.0437982 -8.8817842e-16,12.0219819 -8.8817842e-16,12 C-8.8817842e-16,11.6248875 0.206537439,11.2980145 0.5120961,11.126897 L7.15914791,4.24626849 C7.54287199,3.84906039 8.1759426,3.83812942 8.5731507,4.2218535 C8.97035881,4.60557758 8.98128977,5.2386482 8.59756569,5.6358563 L3.4155186,11 L23,11 C23.5522847,11 24,11.4477153 24,12 C24,12.5522847 23.5522847,13 23,13 L3.41519357,13 L8.81754099,18.2197759 C9.2147189,18.6035313 9.22560004,19.2366027 8.8418447,19.6337806 C8.45808936,20.0309585 7.82501789,20.0418397 7.42783999,19.6580843 L0.307235129,12.7781192 C0.105873233,12.5835623 0.00380049,12.3249221 0.00210615067,12.0654271 Z" id="path-1"></path>
    </defs>
    <g id="Page-1" stroke="none" stroke-width="1" fill="none" fill-rule="evenodd">
        <g id="Desktop-HD-Copy-2" transform="translate(-1163.000000, -4634.000000)">
            <g id="Group-5" transform="translate(0.000000, 4311.000000)">
                <g id="Group-9" transform="translate(1070.000000, 319.000000)">
                    <g id="icon-arrow-white" transform="translate(105.000000, 12.000000) rotate(-180.000000) translate(-105.000000, -12.000000) translate(93.000000, 0.000000)">
                        <mask id="mask-2" fill="white">
                            <use xlink:href="#path-1"></use>
                        </mask>
                        <use id="Combined-Shape" fill="#FFFFFF" fill-rule="nonzero" xlink:href="#path-1"></use>
                    </g>
                </g>
            </g>
        </g>
    </g>
</svg>