<?xml version="1.0" encoding="UTF-8" standalone="no"?>
<svg width="510px" height="798px" viewBox="0 0 510 798" version="1.1" xmlns="http://www.w3.org/2000/svg" xmlns:xlink="http://www.w3.org/1999/xlink" style="background: transparent;">
    <!-- Generator: Sketch 49.1 (51147) - http://www.bohemiancoding.com/sketch -->
    <title>illu</title>
    <desc>Created with Sketch.</desc>
    <defs>
        <path d="M163.814333,185.064702 C142.42525,200.134517 77.6820857,228.371746 57.5080737,229.718478 C49.2577892,230.268488 41.2717488,232.739005 33.7295027,229.227317 C26.1883858,225.715629 20.4122833,219.190205 17.7992039,211.227512 C-10.8419082,123.2384 -2.19977472,12.8222439 24.5837247,1.57194146 C51.3672241,-9.67836098 136.148891,61.8874146 178.50133,143.725698 C182.333997,151.175727 182.926852,159.878556 180.13761,167.730341 C177.348368,175.580995 170.57401,180.302478 163.814333,185.064702 Z" id="path-1"></path>
        <path d="M240.044118,21.7450916 C247.695701,42.019939 253.015837,99.2562237 247.022624,115.318867 C244.571267,121.887319 244.187783,128.706483 237.825792,133.75591 C231.46267,138.805336 222.651584,141.759437 213.520362,141.904647 C112.714932,143.323841 2.51323529,110.314819 0.755090498,86.7398633 C-1.00294118,63.1637734 103.467647,14.0319823 202.972851,0.451510144 C212.022624,-0.766886576 221.174208,0.84062567 228.214932,4.88493136 C235.255656,8.9281026 237.626697,15.3377315 240.044118,21.7450916 Z" id="path-3"></path>
        <path d="M12.2628175,29.1086683 C27.3640714,17.5104271 74.2147302,-0.928266332 89.3012302,0.473743719 C95.4717937,1.04698492 101.316635,-0.256658291 107.220492,4.1178392 C113.123214,8.49346734 117.894421,15.5227387 120.382167,23.5085427 C147.690627,111.722111 148.424921,216.46956 129.014373,223.684259 C109.60496,230.898844 41.1431429,150.941985 3.92342063,66.7967337 C0.552706349,59.1388191 -0.46418254,50.713191 1.12016667,43.5561558 C2.70338095,36.3979899 7.49047619,32.7742462 12.2628175,29.1086683 Z" id="path-5"></path>
        <path d="M158.086886,80.8340418 C158.9523,76.7556191 158.160707,72.5012556 155.885871,69.0074107 C136.641193,39.7728503 108.102964,17.693975 71.3716929,1.92513354 C65.1002786,-0.750302636 57.8180786,0.913757371 53.3331429,6.04782518 C18.1419,47.5710033 -0.538215,113.206025 0.436114286,163.78085 C0.635886429,170.032993 5.77204071,174.994071 12.0306214,174.98011 C85.4761286,174.172598 147.708729,128.340344 158.086886,80.8340418 Z" id="path-7"></path>
        <path d="M53.9418861,1.30194872 C50.134038,1.7385641 46.6202278,3.564 44.0718987,6.43076923 C21.2732532,32.2971282 7.27434177,64.3201026 1.04434177,101.774256 C-0.131810127,108.941744 3.77517722,115.976103 10.474962,118.756 C57.8488734,137.456 123.276266,134.475282 170.064354,118.495385 C175.746835,116.481538 178.908025,110.410667 177.303772,104.591385 C159.012582,38.5270769 101.022886,-3.83364103 53.9418861,1.30194872 Z" id="path-9"></path>
        <path d="M66.358431,191.631184 C48.8820402,182.094799 10.8633046,145.436948 5.39938506,130.672138 C3.16445402,124.633069 -0.657798851,119.657121 0.738183908,112.337552 C2.13303448,105.017983 6.48854598,97.6916207 12.7483908,92.1303333 C81.9814368,30.855408 178.389161,-12.0758736 193.748368,3.28220115 C209.106443,18.641408 165.93627,115.319724 104.900236,184.282178 C99.3389483,190.542023 92.0125862,194.897534 84.6930172,196.292385 C77.3723161,197.688368 71.8812241,194.645057 66.358431,191.631184 Z" id="path-11"></path>
        <path d="M105.203093,135.508978 C103.503196,139.993903 99.8198969,143.451127 95.2191753,144.883373 C70.0269072,152.559582 42.35,151.610761 12.4696907,143.016157 C6.2257732,141.209791 1.74639175,135.769284 1.20092784,129.330373 C-1.83824742,85.9821045 15.4068041,36.6411642 38.4217526,5.12836567 C40.3235052,2.60418657 43.1869072,0.967977612 46.3394845,0.606253731 C49.4920619,0.243402985 52.6559794,1.18658955 55.0861856,3.2138209 C100.010412,41.3965373 118.584536,100.085955 105.203093,135.508978 Z" id="path-13"></path>
        <path d="M21.2870513,0.860034247 C37.171292,-1.15386986 79.7438938,3.6819863 90.6459469,9.87513699 C95.1047009,12.407774 100.035108,13.6418836 102.838011,18.4822603 C105.639788,23.322637 106.569586,29.4423288 105.402273,35.3619863 C92.3738407,100.695205 52.8754265,167.12251 35.400623,164.851048 C17.9258195,162.579586 -3.40550796,87.9834247 0.552325664,21.7336644 C0.924920354,15.7100342 3.37661593,10.0299658 7.31418761,6.06544521 C11.252885,2.10092466 16.2665912,1.49630137 21.2870513,0.860034247 Z" id="path-15"></path>
        <path d="M3.08151,27.801913 C0.52884,31.2825217 -0.47234,35.6652174 0.3164,39.91 C4.30304,60.8253043 14.0685,80.0664348 28.99015,97.812 C33.95424,103.725304 42.48574,105.136087 49.08833,101.135478 C76.43772,83.8601739 100.22987,51.6258261 111.85192,22.3068696 C114.1187,16.38 111.16488,9.73530435 105.24594,7.45069565 C64.73996,-8.35278261 21.16264,3.068 3.08151,27.801913 Z" id="path-17"></path>
        <path d="M148.255867,29.9264151 C151.421267,33.5558491 152.739333,38.4384906 151.829267,43.1660377 C146.695267,68.9660377 132.7462,92.8437736 110.981667,115.017736 C106.425667,119.646792 99.4851333,120.993962 93.5238,118.40717 C53.6939333,100.441132 18.1650667,61.7898113 1.15826667,26.5550943 C-0.177933333,23.6818868 -0.269733333,20.385283 0.902133333,17.4418868 C2.07513333,14.4984906 4.40866667,12.1664151 7.35533333,10.994717 C62.4478,-10.3166038 123.2228,1.29735849 148.255867,29.9264151 Z" id="path-19"></path>
    </defs>
    <g id="illu" stroke="none" stroke-width="1" fill="none" fill-rule="evenodd">
        <g transform="translate(0.000000, -2.000000)">
            <g id="Page-1" transform="translate(141.000000, 343.000000)">
                <path d="M250,36 C364.245902,36 457,128.752993 457,243.000057 C457,357.245989 364.245902,450 250,450 C135.754098,450 43,357.245989 43,243.000057 C43,128.752993 135.754098,36 250,36 Z" id="Fill-1" fill="#FFFFFF"></path>
                <path d="M250.5,74 C343.497299,74 419,149.502727 419,242.500057 C419,335.497386 343.497299,411 250.5,411 C157.502701,411 82,335.497386 82,242.500057 C82,149.502727 157.502701,74 250.5,74 Z" id="Fill-2" fill="#6C987C"></path>
                <path d="M306.927682,184.923953 C285.522373,200.015079 220.730091,228.29224 200.540774,229.640876 C192.284231,230.191664 184.292132,232.665675 176.744164,229.149021 C169.197326,225.632367 163.416841,219.097715 160.801779,211.123761 C132.138939,123.010219 140.787629,12.4379176 167.591447,1.17170552 C194.395266,-10.0945066 279.241252,61.572474 321.625821,143.526489 C325.461396,150.987054 326.054701,159.70219 323.263343,167.565079 C320.471985,175.426835 313.692488,180.154995 306.927682,184.923953 Z" id="Fill-3" fill="#69C68B"></path>
                <g id="Group-6" transform="translate(143.000000, 0.000000)">
                    <mask id="mask-2" fill="white">
                        <use xlink:href="#path-1"></use>
                    </mask>
                    <g id="Clip-5"></g>
                    <polygon id="Fill-4" fill="#88DEA7" mask="url(#mask-2)" points="140.025599 35.8241951 140.349693 35.9203902 140.655719 36.0629854 140.936901 36.2497171 141.187595 36.4771902 141.401022 36.7386146 141.573797 37.0294634 141.701402 37.3429463 141.78045 37.6711415 141.80981 38.0083902 141.789484 38.345639 141.718341 38.6760976 141.598641 38.9929756 141.433771 39.2883512 141.227118 39.5554341 140.983201 39.7885659 140.706535 39.9832195 140.403897 40.1337366 140.08319 40.2378537 139.750062 40.2921756 139.412417 40.2967024 139.07816 40.2503024 110.806312 34.1685073 114.137593 56.5050146 113.133691 57.3107902 77.7193509 43.5662049 66.3218528 84.3540683 65.4376518 84.6403902 41.6681147 65.6243122 35.4527348 102.188644 35.353361 102.248624 7.72857197 93.2458927 2.22010118 119.246868 2.12524437 119.571668 1.98408839 119.878361 1.7977625 120.161288 1.57191294 120.412527 1.3110567 120.627551 1.02196926 120.800702 0.709167621 120.929717 0.381685758 121.010068 0.0451699122 121.040624 -0.291345934 121.020254 -0.62221554 120.950088 -0.938404926 120.831259 -1.2331386 120.666029 -1.49964108 120.458927 -1.73339538 120.214478 -1.927626 119.938341 -2.07894521 119.636176 -2.18283601 119.313639 -2.23816915 118.979785 -2.24381539 118.642537 -2.19864548 118.30642 4.35212104 87.3859122 31.8628561 96.3501659 38.2950515 58.5115317 39.4604353 58.065639 63.5845561 77.3657756 74.7110347 37.5443902 108.710428 50.7400976 105.47852 29.0690341 106.0646 28.5178927"></polygon>
                </g>
                <path d="M240.434732,177.707549 C248.090275,197.997345 253.413163,255.275831 247.416849,271.350318 C244.964224,277.923612 244.580541,284.747805 238.215258,289.800954 C231.848844,294.854103 223.033199,297.810383 213.897253,297.955699 C113.039666,299.37594 2.78095013,266.34258 1.02189566,242.750242 C-0.737045628,219.156769 103.787596,169.988752 203.344284,156.398267 C212.39874,155.178972 221.555059,156.787669 228.599426,160.834957 C235.643793,164.881109 238.01606,171.295464 240.434732,177.707549 Z" id="Fill-7" fill="#8BCD86"></path>
                <g id="Group-10" transform="translate(0.000000, 156.000000)">
                    <mask id="mask-4" fill="white">
                        <use xlink:href="#path-3"></use>
                    </mask>
                    <g id="Clip-9"></g>
                    <polygon id="Fill-8" fill="#B2E4AF" mask="url(#mask-4)" points="106.871493 3.32620036 107.234502 3.41468727 107.578054 3.56216546 107.892647 3.76409713 108.169796 4.0159445 108.402036 4.30976642 108.582805 4.63762178 108.707014 4.99043498 108.772624 5.3602649 108.776018 5.73463261 108.717195 6.10446252 108.599548 6.46067907 108.424321 6.79080332 108.197398 7.08916304 87.5791855 29.9607611 109.777149 38.7289065 109.971719 40.0062945 78.7050905 65.2432158 109.93552 97.2743437 109.739819 98.1875741 79.7420814 109.976753 109.910633 135.066197 109.912896 135.183045 87.0910633 155.78121 108.032692 174.682241 108.288801 174.955643 108.496719 175.266482 108.650452 175.60795 108.746606 175.969839 108.781674 176.343072 108.754525 176.71744 108.667421 177.081598 108.520928 177.42647 108.320023 177.741846 108.070136 178.02092 107.777828 178.254617 107.451244 178.436128 107.099208 178.562052 106.731335 178.62785 106.357692 178.632388 105.988462 178.574531 105.63371 178.456548 105.303167 178.281843 105.005656 178.054954 80.3270362 155.78121 103.059389 135.26359 71.8954751 109.347135 72.0938914 108.109453 102.513801 96.1535095 71.9855204 64.8427558 102.067986 40.5610394 80.4968326 32.0402035 80.3131222 31.2540313 104.84095 4.04544013 105.113575 3.79018942 105.424434 3.58145107 105.765271 3.42830064 106.126697 3.33300704 106.498756 3.29897362"></polygon>
                </g>
                <path d="M231.873077,260.615501 C246.973748,249.055616 293.822598,230.677901 308.908516,232.075274 C315.078841,232.64662 320.923457,231.347288 326.827086,235.707318 C332.72958,240.068476 337.500602,247.074501 339.988252,255.033895 C367.295658,342.955733 368.029923,447.356774 348.620125,454.547613 C329.211462,461.738339 260.752288,382.045904 223.534002,298.178928 C220.163418,290.546339 219.146569,282.148575 220.730857,275.015209 C222.31401,267.880716 227.10092,264.268956 231.873077,260.615501 Z" id="Fill-11" fill="#B1DEA5"></path>
                <g id="Group-14" transform="translate(220.000000, 232.000000)">
                    <mask id="mask-6" fill="white">
                        <use xlink:href="#path-5"></use>
                    </mask>
                    <g id="Clip-13"></g>
                    <polygon id="Fill-12" fill="#D3EECC" mask="url(#mask-6)" points="181.036865 80.5273869 181.378476 80.6280151 181.699659 80.7806533 181.993603 80.9819095 182.252365 81.2261307 182.469135 81.5076633 182.639373 81.8197236 182.757405 82.1532663 182.82323 82.5026382 182.83231 82.8576633 182.785778 83.2092965 175.867302 115.670352 146.688492 106.21809 139.866484 146.108329 138.695246 146.553241 113.077817 126.179774 101.263294 168.208191 65.1353651 154.269384 68.5741746 177.187274 67.9862857 177.737902 32.1091746 170.065402 31.7675635 169.963982 31.446381 169.810553 31.1535714 169.608957 30.8959444 169.364284 30.6791746 169.082299 30.5100714 168.770126 30.3920397 168.435339 30.3273492 168.086307 30.3194048 167.731621 30.3659365 167.379874 30.4680794 167.039887 30.6224286 166.719912 30.8244444 166.427864 31.0695873 166.17098 31.3533175 165.95559 31.6665556 165.786897 32.0024921 165.669083 32.3531825 165.605088 32.7084127 165.596495 33.061373 165.64353 63.219619 172.093116 59.6820714 148.509497 60.6910159 147.704585 98.241 162.191872 110.325635 119.19799 111.215413 118.911935 136.477611 139.002173 143.080579 100.38505 143.179317 100.326256 172.473889 109.815829 178.344833 82.2697236 178.445841 81.929397 178.599056 81.6094221 178.801071 81.3165829 179.046214 81.058794 179.32881 80.8428392 179.642048 80.6743719 179.977984 80.5556533 180.32754 80.4900754 180.683905 80.4810302"></polygon>
                </g>
                <path d="M255.657915,292.026109 C256.523169,287.955146 255.731723,283.708564 253.457307,280.22111 C234.216184,251.040024 205.683227,229.001534 168.958741,213.261535 C162.688485,210.590993 155.407631,212.252009 150.923523,217.376686 C115.738782,258.823913 97.0621173,324.338879 98.0362666,374.821196 C98.2360018,381.061903 103.371207,386.013907 109.628632,385.999971 C183.060571,385.193936 245.281675,339.445516 255.657915,292.026109 Z" id="Fill-15" fill="#69C68B"></path>
                <g id="Group-18" transform="translate(98.000000, 211.000000)">
                    <mask id="mask-8" fill="white">
                        <use xlink:href="#path-7"></use>
                    </mask>
                    <g id="Clip-17"></g>
                    <polygon id="Fill-16" fill="#88DEA7" mask="url(#mask-8)" points="29.3809286 28.7441961 29.70915 28.8327341 30.0203357 28.9700815 30.3065357 29.1516979 30.5632071 29.3741779 30.7835357 29.6318462 30.9629786 29.9190271 31.0981286 30.2311802 31.1844429 30.5592248 31.2219214 30.8963502 31.2082929 31.2357458 27.8556643 60.1070734 49.8476357 54.6279344 50.7493929 55.555313 40.4314286 92.3099263 82.2734143 99.794791 82.6447929 100.652928 65.9384357 126.261972 103.061529 128.968056 103.130807 129.061134 96.7992 157.566959 123.303364 160.580769 123.637264 160.644221 123.957536 160.756596 124.257364 160.915511 124.529936 161.117332 124.769571 161.35752 124.971729 161.630739 125.129593 161.93086 125.240893 162.251186 125.304493 162.584679 125.31585 162.923734 125.278371 163.260859 125.189786 163.588563 125.0535 163.899354 124.872921 164.186535 124.651457 164.443409 124.39365 164.664527 124.106314 164.844667 123.793993 164.980085 123.466907 165.067488 123.1296 165.105173 122.790021 165.09212 91.2705429 161.507921 97.5760286 133.121395 59.1582214 130.321098 58.6005857 129.197347 75.5556643 103.205773 34.7051571 95.8979847 44.6119929 60.6110588 23.2753286 65.9278781 22.6688571 65.39438 26.6949643 30.7124636 26.7597 30.3787435 26.8732714 30.0586446 27.0322714 29.7589776 27.2355643 29.4865531 27.4763357 29.2481816 27.7500429 29.0472685 28.0498714 28.8894892 28.3712786 28.7782492 28.7051786 28.7169537 29.0447571 28.7056027"></polygon>
                </g>
                <path d="M327.140269,175.421022 C323.329917,175.858381 319.813796,177.686926 317.263791,180.558576 C294.450151,206.468982 280.442033,238.546488 274.207936,276.064421 C273.03101,283.244114 276.940567,290.290451 283.644758,293.075082 C331.049826,311.806926 396.520248,308.821132 443.339108,292.814023 C449.025326,290.796748 452.188595,284.715538 450.583287,278.886347 C432.280067,212.70954 374.252233,170.276687 327.140269,175.421022 Z" id="Fill-19" fill="#69C68B"></path>
                <g id="Group-22" transform="translate(274.000000, 174.000000)">
                    <mask id="mask-10" fill="white">
                        <use xlink:href="#path-9"></use>
                    </mask>
                    <g id="Clip-21"></g>
                    <polygon id="Fill-20" fill="#D1D5DF" mask="url(#mask-10)" points="129.807063 13.5869744 130.130392 13.6817436 130.435696 13.8227692 130.717342 14.0089231 130.967443 14.2345641 131.181494 14.4951795 131.353861 14.784 131.482291 15.0965128 141.212582 45.0638974 112.982684 51.0670769 126.259456 86.9485128 125.473101 87.9153846 95.024962 83.3032821 105.231797 123.241744 69.2893165 128.833128 82.8680127 145.927692 82.6359367 146.696 49.6574937 157.353026 49.3296582 157.433128 48.9950633 157.462462 48.6582152 157.441026 48.3292532 157.371077 48.0138101 157.251487 47.7208987 157.086769 47.4550253 156.879179 47.2218228 156.635487 47.0291772 156.359077 46.8793418 156.057846 46.7756962 155.736308 46.7216203 155.403487 46.7171139 155.066154 46.7621772 154.732205 46.8579367 154.40841 46.9998861 154.102667 47.1857722 153.821744 47.4122152 153.57241 47.6724557 153.358051 47.9619873 153.185436 48.2740506 153.059077 75.7266076 144.186872 61.7299494 126.566564 62.197481 125.369538 99.6349367 119.544615 89.1813797 78.6370256 89.8032532 77.9488205 119.804139 82.4921026 106.975747 47.8201026 107.030949 47.7185641 135.379139 41.6916923 127.196772 16.4921026 127.116785 16.1637949 127.086367 15.8287179 127.106646 15.4913846 127.176494 15.1619487 127.294785 14.8460513 127.458139 14.5515897 127.664304 14.2842051 127.907646 14.0517949 128.183658 13.8566154 128.484456 13.7065641 128.804405 13.601641 129.136747 13.546359 129.473595 13.5418462"></polygon>
                </g>
                <path d="M301.774776,254.002282 C284.336681,244.48979 246.401256,207.923784 240.94931,193.195966 C238.719276,187.172028 234.905399,182.208547 236.298323,174.907316 C237.690117,167.606086 242.036084,160.29808 248.282212,154.750726 C317.363547,93.6293229 413.560012,50.8056038 428.885562,66.1251995 C444.209983,81.4459246 401.13441,177.882017 340.232124,246.671689 C334.683023,252.91585 327.372715,257.260449 320.069185,258.651804 C312.764526,260.04429 307.285467,257.008604 301.774776,254.002282 Z" id="Fill-23" fill="#B1DEA5"></path>
                <g id="Group-27" transform="translate(236.000000, 63.000000)">
                    <mask id="mask-12" fill="white">
                        <use xlink:href="#path-11"></use>
                    </mask>
                    <g id="Clip-25"></g>
                    <polygon id="Fill-24" fill="#D3EECC" mask="url(#mask-12)" points="77.593092 78.9381264 117.937333 75.1724828 118.669856 76.1857874 105.578414 106.151299 149.27958 106.642667 145.125598 145.067856 166.404994 135.814517 167.089966 136.239086 168.932029 172.798437 168.925236 173.121109 168.872023 173.440385 168.774655 173.748339 168.634264 174.03931 168.454247 174.307638 168.238 174.547661 167.98892 174.753718 167.713799 174.922414 167.417167 175.050351 167.104684 175.135264 166.784276 175.173759 166.461603 175.166966 166.142328 175.114885 165.834374 175.017517 165.543402 174.877126 165.275075 174.695977 165.036184 174.47973 164.828994 174.230649 164.660299 173.955529 164.532362 173.658897 164.44858 173.347546 164.408954 173.026006 162.860126 142.295138 140.96369 151.816805 139.924345 151.05258 144.241362 111.114793 99.5359483 110.612103 99.0298621 109.829764 111.939023 80.2808966 72.8832069 83.9253966 72.7994253 83.8461437 74.4150517 53.1582989 46.2553736 54.6403276 45.9327011 54.6335345 45.6134253 54.581454 45.3054713 54.4852184 45.0145 54.3448276 44.7461724 54.1659425 44.5050172 53.9496954 44.2989598 53.7017471 44.1291322 53.4266264 44.0000632 53.1299943 43.9151494 52.8186437 43.875523 52.4982356 43.8811839 52.174431 43.9332644 51.8562874 44.0306322 51.5472011 44.1698908 51.2562299 44.349908 50.9879023 44.5661552 50.7478793 44.8141034 50.5406897 45.0892241 50.3708621 45.3847241 50.2429253 45.6972069 50.1580115 46.0176149 50.1172529 79.2019253 48.3714253"></polygon>
                    <polygon id="Fill-26" fill="#D3EECC" mask="url(#mask-12)" points="116.568523 16.2309885 145.563753 13.5239368 146.297408 14.5383736 136.978402 35.8687184 168.131575 36.2185632 165.187897 63.446454 180.139517 56.945454 180.824489 57.370023 182.184241 84.3692126 182.181977 84.642069 182.145747 84.9137931 182.077816 85.177592 181.978184 85.4323333 181.849115 85.6734885 181.691741 85.8965287 181.508328 86.1003218 181.301138 86.2792069 181.074701 86.4320517 180.831282 86.556592 180.575408 86.6516954 180.308213 86.7139655 180.036489 86.7445345 179.763632 86.7411379 179.491908 86.7060402 179.228109 86.6381092 178.973368 86.538477 178.732213 86.4082759 178.509172 86.2509023 178.305379 86.0674885 178.126494 85.861431 177.973649 85.6349943 177.849109 85.3915747 177.754006 85.134569 177.691736 84.8685057 177.661167 84.5967816 176.594649 63.4249425 161.024856 70.1954023 159.985511 69.4311782 163.092224 40.6906897 130.934805 40.329523 130.428718 39.5471839 139.566575 18.6323506 111.858638 21.2182586 111.774856 21.1390057 112.936477 -0.924994253 93.4017759 0.103028736 93.1277874 0.100764368 92.8571954 0.0656666667 92.5922644 -0.00113218391 92.337523 -0.100764368 92.0963678 -0.228701149 91.8721954 -0.386074713 91.6684023 -0.569488506 91.4895172 -0.775545977 91.3355402 -1.00198276 91.2098678 -1.24427011 91.1158966 -1.50127586 91.0524943 -1.76733908 91.0207931 -2.03906322 91.0230575 -2.31191954 91.0581552 -2.58364368 91.1260862 -2.84857471 91.2245862 -3.10331609 91.3536552 -3.34447126 91.5110287 -3.56864368 91.6944425 -3.7713046 91.9005 -3.95132184 92.1258046 -4.10529885 92.3692241 -4.22983908 92.6262299 -4.32494253 92.8922931 -4.38834483 93.1640172 -4.41891379 117.723351 -5.71186782"></polygon>
                </g>
                <path d="M298.768182,237.369802 C297.077764,241.867714 293.415003,245.334949 288.839935,246.771343 C263.788141,254.46978 236.265562,253.518212 206.551868,244.89872 C200.342767,243.087123 195.888363,237.630862 195.34594,231.173306 C192.323712,187.699511 209.472604,138.215692 232.359219,106.61164 C234.250367,104.080152 237.097803,102.439205 240.232801,102.076434 C243.3678,101.712532 246.514075,102.65845 248.93073,104.691552 C293.604456,142.984835 312.075009,201.844203 298.768182,237.369802 Z" id="Fill-28" fill="#8BCD86"></path>
                <g id="Group-31" transform="translate(194.000000, 101.000000)">
                    <mask id="mask-14" fill="white">
                        <use xlink:href="#path-13"></use>
                    </mask>
                    <g id="Clip-30"></g>
                    <polygon id="Fill-29" fill="#B2E4AF" mask="url(#mask-14)" points="44.6962887 18.7442836 52.1876289 37.7409851 71.8515464 18.6361045 86.9669072 37.297 92.2049485 24.0811194 92.9908247 23.8985672 110.979794 40.0589478 111.195258 40.2809403 111.377835 40.5288507 111.524124 40.8004254 111.63299 41.0877761 111.699897 41.3886493 111.725979 41.6951567 111.710103 42.0016642 111.652268 42.3036642 111.553608 42.5955224 111.415258 42.8704776 111.240619 43.1251493 111.033093 43.3527761 110.796082 43.5511045 110.535258 43.7156269 110.252887 43.8418358 109.955773 43.9297313 109.650722 43.9770597 109.341134 43.9815672 109.033814 43.9455075 108.734433 43.8666269 108.447526 43.748306 108.181031 43.5927985 107.937216 43.4034851 94.2836082 31.1364254 88.7983505 44.9765896 87.5203093 45.1704104 71.4501031 25.3296866 51.0672165 45.1343507 50.1543299 44.939403 42.8285567 26.3630224 27.1836082 45.1095597 27.0679381 45.1118134 13.97 30.6507463 2.5685567 43.2389627 2.34628866 43.4530672 2.0956701 43.6344925 1.82350515 43.7809851 1.5343299 43.890291 1.23268041 43.957903 0.924226804 43.9849478 0.614639175 43.9691716 0.310721649 43.9128284 0.0170103093 43.814791 -0.260824742 43.6784403 -0.515979381 43.504903 -0.746185567 43.2998134 -0.945773196 43.0642985 -1.11247423 42.8051194 -1.24061856 42.5245299 -1.32907216 42.2304179 -1.37783505 41.9261642 -1.38350515 41.6185299 -1.34608247 41.3131493 -1.26896907 41.0156567 -1.14989691 40.7316866 -0.994536082 40.4657463 -0.804020619 40.2234701 13.97 23.9120896 26.9862887 38.2852612 43.4590722 18.5470821"></polygon>
                </g>
                <path d="M224.250016,233.461846 C240.161005,231.454197 282.805298,236.275034 293.72571,242.448949 C298.191972,244.97372 303.130682,246.203997 305.938305,251.02934 C308.7448,255.854684 309.676164,261.955369 308.506885,267.85664 C295.456514,332.986945 255.891585,399.207936 238.387354,396.943529 C220.883123,394.679121 199.515874,320.314645 203.480373,254.270646 C203.853595,248.265724 206.309419,242.603297 210.253622,238.65109 C214.198952,234.698883 219.221101,234.096137 224.250016,233.461846 Z" id="Fill-32" fill="#8BCD86"></path>
                <g id="Group-36" transform="translate(202.000000, 233.000000)">
                    <mask id="mask-16" fill="white">
                        <use xlink:href="#path-15"></use>
                    </mask>
                    <g id="Clip-34"></g>
                    <polygon id="Fill-33" fill="#B2E4AF" mask="url(#mask-16)" points="-24.2066478 15.2150342 -23.8464354 15.3088356 -23.506485 15.460274 -23.1969274 15.6659589 -22.9245168 15.9202397 -22.6971327 16.2152055 -7.04703009 40.5165411 6.31459823 22.3857534 7.58884956 22.5281507 22.8843681 57.2945548 59.6046442 36.5588014 60.4297558 36.9826027 63.8089982 67.2318493 93.9069947 45.8112329 94.0184354 45.8394863 107.158308 71.7444863 129.329381 57.2832534 129.656949 57.1058219 130.008156 56.9860274 130.375122 56.925 130.747717 56.9261301 131.113558 56.9882877 131.464765 57.1103425 131.792333 57.2889041 132.085005 57.5194521 132.336028 57.7952055 132.538648 58.1082534 132.687235 58.4495548 132.777288 58.8123288 132.806556 59.1841438 132.775037 59.5559589 132.682733 59.9176027 132.533019 60.2589041 132.329274 60.5708219 132.076 60.8454452 131.782202 61.0737329 105.416906 78.2721575 92.3310655 52.4745205 61.1839504 74.6410274 60.0492814 74.1302055 56.6193841 43.4311644 20.769246 63.6753082 6.08496283 30.2978425 -6.87818053 47.8872945 -7.67852743 47.8624315 -26.4782372 18.669863 -26.6538407 18.3409932 -26.7731611 17.9872603 -26.8328212 17.6188356 -26.8305699 17.2447603 -26.7675327 16.8774658 -26.6448354 16.524863 -26.4669805 16.1971233 -26.2373451 15.9044178 -25.9626832 15.6523973 -25.6497487 15.4501027 -25.3086726 15.3009247 -24.9484602 15.2116438 -24.5769912 15.1822603"></polygon>
                    <polygon id="Fill-35" fill="#B2E4AF" mask="url(#mask-16)" points="-31.5178336 81.4297603 -31.2037735 81.4975685 -30.9032212 81.6094521 -30.6206796 81.7631507 -30.3629027 81.9564041 -30.1355186 82.1835616 -29.9419044 82.4412329 -17.906308 101.131438 -7.3971115 86.8725 -6.12286018 87.0148973 6.0084177 114.58911 35.1248354 98.1478767 35.9499469 98.5716781 38.5986336 122.284212 62.2319434 105.464384 62.3433841 105.492637 72.7580248 126.026096 89.8928779 114.849041 90.1742938 114.693082 90.474846 114.578938 90.7889062 114.50887 91.1085947 114.484007 91.4294088 114.505479 91.743469 114.572158 92.0451469 114.684041 92.3276885 114.83661 92.5854655 115.028733 92.8139752 115.25589 93.0075894 115.512432 93.162931 115.794966 93.276623 116.096712 93.3464142 116.412021 93.3711788 116.732979 93.3497912 117.055068 93.283377 117.370377 93.1719363 117.673253 93.0199717 117.956918 92.8286088 118.215719 92.6023504 118.445137 92.3468248 118.639521 71.016623 132.553428 60.6560142 112.127671 35.9735858 129.69339 34.8389168 129.182568 32.1395752 105.02024 3.89329558 120.970993 -7.6267469 94.7834589 -17.7363327 108.502192 -18.5366796 108.476199 -33.7230088 84.8958904 -33.8783504 84.6133562 -33.9909168 84.3116096 -34.060708 83.9963014 -34.0843469 83.6742123 -34.0618336 83.3532534 -33.9942938 83.0379452 -33.8828531 82.7350685 -33.7297628 82.4514041 -33.5384 82.1926027 -33.3121416 81.9643151 -33.0554903 81.7699315 -32.7729487 81.6151027 -32.4723965 81.5009589 -32.1594619 81.4320205 -31.8386478 81.4082877"></polygon>
                </g>
                <path d="M239.040179,199.55848 C236.477572,203.031794 235.472495,207.405304 236.264305,211.64119 C240.266464,232.512658 250.069936,251.71346 265.049669,269.421832 C270.033082,275.322743 278.597791,276.730569 285.226082,272.738345 C312.68193,255.499248 336.566692,223.332461 348.233981,194.074954 C350.509584,188.160507 347.544266,181.529738 341.602287,179.249917 C300.938636,163.479562 257.19169,174.876407 239.040179,199.55848 Z" id="Fill-37" fill="#69C68B"></path>
                <g id="Group-40" transform="translate(236.000000, 172.000000)">
                    <mask id="mask-18" fill="white">
                        <use xlink:href="#path-17"></use>
                    </mask>
                    <g id="Clip-39"></g>
                    <polygon id="Fill-38" fill="#88DEA7" mask="url(#mask-18)" points="42.90836 -12.506 43.23606 -12.4234783 43.54794 -12.2934783 68.49269 0.414869565 54.66601 21.7043478 85.21443 35.7398261 85.34212 36.9821739 63.61448 53.0072174 94.67818 71.4174783 75.89193 97.1224348 94.79683 99.2770435 95.17764 99.9858261 81.13739 127.413565 80.96224 127.701826 80.74528 127.960696 80.49216 128.184522 80.20853 128.367652 79.90004 128.506696 79.5746 128.598261 79.24012 128.641217 78.90225 128.632174 78.57003 128.574522 78.24911 128.466 77.94853 128.312261 77.67394 128.115565 77.43212 127.879304 77.22872 127.610261 77.06713 127.314087 76.95074 126.996435 76.88407 126.665217 76.86712 126.327217 76.89989 125.991478 76.98351 125.663652 77.11459 125.352783 88.49934 103.110348 68.92661 100.88 68.40907 99.6998261 88.09028 72.7683478 56.16552 53.8482609 56.11919 52.917913 77.48184 37.161913 48.10636 23.6656522 48.07359 23.5548696 61.96694 2.16478261 41.49699 -8.26347826 41.20771 -8.43869565 40.94894 -8.65573913 40.72407 -8.90782609 40.53988 -9.19156522 40.40089 -9.49904348 40.30823 -9.8246087 40.26529 -10.1592174 40.2732 -10.4972174 40.33083 -10.8306957 40.43705 -11.1506087 40.59073 -11.4524348 40.78735 -11.7271304 41.02239 -11.9690435 41.2902 -12.1736522 41.58739 -12.3364348 41.90379 -12.4528696 42.23488 -12.5206957 42.57275 -12.5387826"></polygon>
                </g>
                <path d="M264.145151,173.723935 C267.310005,177.332971 268.627844,182.188171 267.717934,186.889149 C262.58482,212.544148 248.63816,236.287687 226.877382,258.337028 C222.322168,262.940068 215.382832,264.279667 209.422527,261.707413 C169.599533,243.842347 134.076796,205.408254 117.072931,170.371562 C115.736961,167.514502 115.645177,164.236426 116.816842,161.309572 C117.989639,158.382718 120.32277,156.063749 123.268928,154.898637 C178.351889,133.707089 239.116403,145.255779 264.145151,173.723935 Z" id="Fill-41" fill="#B1DEA5"></path>
                <g id="Group-44" transform="translate(116.000000, 144.000000)">
                    <mask id="mask-20" fill="white">
                        <use xlink:href="#path-19"></use>
                    </mask>
                    <g id="Clip-43"></g>
                    <polygon id="Fill-42" fill="#D3EECC" mask="url(#mask-20)" points="124.323267 -19.7762264 124.6542 -19.7060377 124.971533 -19.5860377 125.267333 -19.4207547 125.5348 -19.2135849 125.768267 -18.9679245 125.962067 -18.690566 126.113933 -18.3883019 126.217067 -18.0656604 126.2726 -17.7316981 126.277133 -17.3932075 126.230667 -17.0581132 126.135467 -16.7332075 125.991533 -16.4264151 125.804533 -16.1445283 125.577867 -15.8943396 125.314933 -15.6792453 125.0248 -15.5060377 124.710867 -15.3792453 97.0926667 -6.47660377 111.1732 11.2041509 110.702867 12.405283 73.0410667 18.2501887 83.5584 59.2981132 82.9328 59.9886792 52.751 55.4298113 65.6574 90.2207547 65.6018667 90.3226415 37.0838 96.3701887 45.3152 121.656226 45.3945333 121.98566 45.4251333 122.321887 45.4047333 122.660377 45.3344667 122.990943 45.2154667 123.307925 45.0511333 123.603396 44.8437333 123.871698 44.5989333 124.104906 44.3224 124.300755 44.0186667 124.451321 43.6968 124.556604 43.3624667 124.612075 43.0236 124.616604 42.6881333 124.571321 42.3628667 124.476226 42.0557333 124.334717 41.7724 124.147925 41.5208 123.921509 41.3054667 123.66 41.1320667 123.370189 41.004 123.056604 31.2142667 92.9864151 59.6144667 86.9626415 46.2581333 50.9581132 47.0480667 49.9879245 77.6786667 54.6158491 67.4106667 14.5403774 103.569667 8.92981132 89.9084667 -8.22339623 90.1419333 -8.99433962 123.318 -19.6879245 123.6478 -19.7683019 123.985533 -19.7977358"></polygon>
                </g>
            </g>
            <path d="M97,427 C106,354 154,298 237,284 C320,270 370.820246,327.093742 440,335 C509.179754,342.906258 541,291 537,239" id="Path-3" stroke="#EBDAC3" stroke-width="8"></path>
            <g id="Group-13" transform="translate(86.318396, 430.649747) rotate(24.000000) translate(-86.318396, -430.649747) translate(28.818396, 348.149747)">
                <path d="M64.5,4.97379915e-14 L64.5,4.97379915e-14 C92.3903799,4.46146118e-14 115,22.6096201 115,50.5 L115,106 C115,109.313708 112.313708,112 109,112 L14,112 L14,50.5 C14,22.6096201 36.6096201,5.48613712e-14 64.5,4.97379915e-14 Z" id="Rectangle-5" fill="#EBDAC3"></path>
                <path d="M66.5,72 L89.5,72 L89.5,153.5 C89.5,159.851275 84.3512746,165 78,165 C71.6487254,165 66.5,159.851275 66.5,153.5 L66.5,72 Z M78,155 C80.7614237,155 83,151.19442 83,146.5 C83,141.80558 80.7614237,138 78,138 C75.2385763,138 73,141.80558 73,146.5 C73,151.19442 75.2385763,155 78,155 Z" id="Combined-Shape" fill="#B1DEA5"></path>
                <path d="M14,72 L37,72 L37,153.5 C37,159.851275 31.8512746,165 25.5,165 C19.1487254,165 14,159.851275 14,153.5 L14,72 Z M25.5,155 C28.2614237,155 30.5,151.19442 30.5,146.5 C30.5,141.80558 28.2614237,138 25.5,138 C22.7385763,138 20.5,141.80558 20.5,146.5 C20.5,151.19442 22.7385763,155 25.5,155 Z" id="Combined-Shape" fill="#B1DEA5"></path>
                <path d="M50.5,7 L50.5,7 C78.3903799,7 101,29.6096201 101,57.5 L101,113 C101,116.313708 98.3137085,119 95,119 L6,119 C2.6862915,119 4.05812251e-16,116.313708 0,113 L0,57.5 C-3.41558644e-15,29.6096201 22.6096201,7 50.5,7 Z" id="Rectangle-5" fill="#FFFFFF"></path>
            </g>
            <path d="M94,419 C103,346 151,290 234,276 C317,262 367.820246,319.093742 437,327 C506.179754,334.906258 538,283 534,231" id="Path-3" stroke="#FFFFFF" stroke-width="8"></path>
            <g id="Group-21" transform="translate(266.000000, 0.000000)">
                <g id="Group-15" transform="translate(126.000000, 116.500000) rotate(-345.000000) translate(-126.000000, -116.500000) translate(52.000000, 42.000000)" fill="#EBDAC3">
                    <ellipse id="Oval-3" cx="74" cy="74.5" rx="74" ry="74.5"></ellipse>
                </g>
                <circle id="Oval-3" fill="#FFFFFF" cx="79.5" cy="79.5" r="79.5"></circle>
                <path d="M121,138.932009 L147.934658,138.932009 C153.132767,138.932009 157.346667,134.718109 157.346667,129.52 C157.346667,124.321891 153.132767,120.107991 147.934658,120.107991 L121,120.107991 L121,103 L153,103 C167.359403,103 179,114.640597 179,129 C179,143.359403 167.359403,155 153,155 L121,155 L121,138.932009 Z" id="Combined-Shape" fill="#FFFFFF" transform="translate(150.000000, 129.000000) rotate(-320.000000) translate(-150.000000, -129.000000) "></path>
                <circle id="Oval-3" fill="#6C987C" cx="79.5" cy="79.5" r="57.5"></circle>
            </g>
        </g>
    </g>
</svg>
