<?xml version="1.0" encoding="UTF-8" standalone="no"?>
<svg width="160px" height="160px" viewBox="0 0 160 160" version="1.1" xmlns="http://www.w3.org/2000/svg" xmlns:xlink="http://www.w3.org/1999/xlink">
    <!-- Generator: Sketch 49.1 (51147) - http://www.bohemiancoding.com/sketch -->
    <title>news</title>
    <desc>Created with Sketch.</desc>
    <defs></defs>
    <g id="Page-1" stroke="none" stroke-width="1" fill="none" fill-rule="evenodd">
        <g id="Desktop-HD-Copy-2" transform="translate(-250.000000, -3919.000000)">
            <g id="Group-5" transform="translate(0.000000, 3782.000000)">
                <g id="news" transform="translate(250.000000, 137.000000)">
                    <rect id="Rectangle-4" fill="#FFFFFF" x="0" y="0" width="160" height="160" rx="8"></rect>
                    <g id="iconmonstr-newspaper-13" transform="translate(29.000000, 34.000000)" fill="#1ED28B" fill-rule="nonzero">
                        <path d="M30.0416667,60.2 L85.8333333,60.2 L85.8333333,64.5 L30.0416667,64.5 L30.0416667,60.2 Z M85.8333333,47.3 L30.0416667,47.3 L30.0416667,51.6 L85.8333333,51.6 L85.8333333,47.3 Z M85.8333333,21.5 L64.375,21.5 L64.375,25.8 L85.8333333,25.8 L85.8333333,21.5 Z M85.8333333,34.4 L64.375,34.4 L64.375,38.7 L85.8333333,38.7 L85.8333333,34.4 Z M12.875,0 L12.875,73.9557 C12.875,77.271 8.58333333,77.271 8.58333333,73.9557 L8.58333333,8.6 L0,8.6 L0,77.314 C0,82.1085 3.88395833,86 8.66916667,86 L94.32225,86 C99.1160417,86 103,82.1128 103,77.314 L103,0 L12.875,1.52766688e-14 Z M94.4166667,73.1 L21.4583333,73.1 L21.4583333,8.6 L94.4166667,8.6 L94.4166667,73.1 Z M55.7916667,21.5 L30.0416667,21.5 L30.0416667,38.7 L55.7916667,38.7 L55.7916667,21.5 Z" id="Shape"></path>
                    </g>
                </g>
            </g>
        </g>
    </g>
</svg>