<?xml version="1.0" encoding="UTF-8" standalone="no"?>
<svg width="80px" height="80px" viewBox="0 0 80 80" version="1.1" xmlns="http://www.w3.org/2000/svg" xmlns:xlink="http://www.w3.org/1999/xlink">
    <!-- Generator: Sketch 49.1 (51147) - http://www.bohemiancoding.com/sketch -->
    <title>petal-icon</title>
    <desc>Created with Sketch.</desc>
    <defs></defs>
    <g id="Page-1" stroke="none" stroke-width="1" fill="none" fill-rule="evenodd">
        <g id="Desktop-HD-Copy-3" transform="translate(-526.000000, -212.000000)">
            <g id="petal-icon" transform="translate(526.000000, 212.000000)">
                <rect id="Rectangle-8" fill="#FFFFFF" x="0" y="0" width="80" height="80" rx="18"></rect>
                <g id="Group-4" transform="translate(22.000000, 22.000000)" fill="#28D893" fill-rule="nonzero">
                    <g id="Group-2-Copy">
                        <path d="M7.41356617,18.5864338 C11.3951546,22.5680222 17.1642751,23.9586537 22.4166242,22.4166242 C23.9586539,17.1642759 22.5680225,11.3951548 18.5864338,7.41356617 C14.6048452,3.43197749 8.8357241,2.04134615 3.58337466,3.58337614 C2.04134635,8.83572493 3.43197778,14.6048454 7.41356617,18.5864338 Z M20.6875511,5.31244888 C25.9438048,10.5687025 27.2995688,18.2484097 24.7548432,24.7548432 C18.2484097,27.2995688 10.5687025,25.9438048 5.31244888,20.6875511 C0.0561952396,15.4312975 -1.29956877,7.7515903 1.24515684,1.24515684 C7.7515903,-1.29956877 15.4312975,0.0561952396 20.6875511,5.31244888 Z" id="Combined-Shape"></path>
                        <path d="M17.3952398,7.39523981 C13.413222,11.3772577 12.0342325,17.1539488 13.5997151,22.4002849 C18.8460504,23.9657677 24.622742,22.5867783 28.6047602,18.6047602 C32.5867783,14.622742 33.9657677,8.84605036 32.4002846,3.5997139 C27.1539488,2.03423246 21.3772577,3.41322195 17.3952398,7.39523981 Z M30.7058775,20.7058775 C25.4504114,25.9613436 17.7638313,27.3039907 11.2661811,24.7338189 C8.69600928,18.2361687 10.0386564,10.5495886 15.2941225,5.29412252 C20.5495886,0.0386564266 28.2361687,-1.30399072 34.7338189,1.26618107 C37.3039907,7.7638313 35.9613436,15.4504114 30.7058775,20.7058775 Z" id="Combined-Shape"></path>
                        <path d="M7.39523981,17.3952398 C3.41322195,21.3772577 2.03423246,27.1539488 3.59971508,32.4002849 C8.84605036,33.9657677 14.622742,32.5867783 18.6047602,28.6047602 C22.5867783,24.622742 23.9657677,18.8460504 22.4002846,13.5997139 C17.1539488,12.0342325 11.3772577,13.413222 7.39523981,17.3952398 Z M24.7338189,11.2661811 C27.3039907,17.7638313 25.9613436,25.4504114 20.7058775,30.7058775 C15.4504114,35.9613436 7.7638313,37.3039907 1.26618107,34.7338189 C-1.30399072,28.2361687 0.0386564266,20.5495886 5.29412252,15.2941225 C10.5495886,10.0386564 18.2361687,8.69600928 24.7338189,11.2661811 Z" id="Combined-Shape"></path>
                        <path d="M17.4135662,28.5864338 C21.3951546,32.5680222 27.1642751,33.9586537 32.4166242,32.4166242 C33.9586539,27.1642759 32.5680225,21.3951548 28.5864338,17.4135662 C24.6048452,13.4319775 18.8357241,12.0413461 13.5833747,13.5833761 C12.0413463,18.8357249 13.4319778,24.6048454 17.4135662,28.5864338 Z M30.6875511,15.3124489 C35.9438048,20.5687025 37.2995688,28.2484097 34.7548432,34.7548432 C28.2484097,37.2995688 20.5687025,35.9438048 15.3124489,30.6875511 C10.0561952,25.4312975 8.70043123,17.7515903 11.2451568,11.2451568 C17.7515903,8.70043123 25.4312975,10.0561952 30.6875511,15.3124489 Z" id="Combined-Shape"></path>
                    </g>
                </g>
            </g>
        </g>
    </g>
</svg>